<?xml version="1.0" encoding="UTF-8" standalone="no"?>
<!DOCTYPE svg PUBLIC "-//W3C//DTD SVG 1.1//EN" "http://www.w3.org/Graphics/SVG/1.1/DTD/svg11.dtd">
<svg version="1.1" xmlns="http://www.w3.org/2000/svg" xmlns:xlink="http://www.w3.org/1999/xlink" preserveAspectRatio="xMidYMid meet" viewBox="0 0 640 640" width="1024" height="1024"><defs><path d="M0 0L640 0L640 640L0 640L0 0Z" id="a1T5bTrYnB"></path><path d="M636.48 204.34C636.48 311.39 549.57 398.3 442.53 398.3C335.48 398.3 248.57 311.39 248.57 204.34C248.57 97.29 335.48 10.38 442.53 10.38C549.57 10.38 636.48 97.29 636.48 204.34Z" id="bd2vjfrdS"></path><path d="M566.37 267.41C566.37 374.45 479.46 461.36 372.42 461.36C265.37 461.36 178.46 374.45 178.46 267.41C178.46 160.36 265.37 73.45 372.42 73.45C479.46 73.45 566.37 160.36 566.37 267.41Z" id="a4XMbmb43f"></path><path d="M478.87 320C478.87 407.68 407.68 478.87 320 478.87C232.32 478.87 161.13 407.68 161.13 320C161.13 232.32 232.32 161.13 320 161.13C407.68 161.13 478.87 232.32 478.87 320Z" id="cGZfUXTs6"></path><path d="M416.16 370.9C416.16 458.58 344.98 529.77 257.3 529.77C169.61 529.77 98.43 458.58 98.43 370.9C98.43 283.22 169.61 212.03 257.3 212.03C344.98 212.03 416.16 283.22 416.16 370.9Z" id="i169Ie5X7v"></path><path d="M346.01 416.31C346.01 481.96 292.71 535.26 227.05 535.26C161.4 535.26 108.1 481.96 108.1 416.31C108.1 350.65 161.4 297.35 227.05 297.35C292.71 297.35 346.01 350.65 346.01 416.31Z" id="g4Cw1RxkE"></path><path d="M307.77 461.36C307.77 527.02 254.47 580.32 188.81 580.32C123.16 580.32 69.86 527.02 69.86 461.36C69.86 395.71 123.16 342.41 188.81 342.41C254.47 342.41 307.77 395.71 307.77 461.36Z" id="cw8mX8gzk"></path><path d="M171.01 555.93C171.01 602.33 133.34 640 86.95 640C40.55 640 2.88 602.33 2.88 555.93C2.88 509.54 40.55 471.87 86.95 471.87C133.34 471.87 171.01 509.54 171.01 555.93Z" id="a2B8eER2sE"></path><path d="M48.57 370.9L269.38 591.71L48.57 591.71L48.57 370.9Z" id="h1LZfwDpv"></path></defs><g><g><g><use xlink:href="#a1T5bTrYnB" opacity="1" fill="#ffffff" fill-opacity="1"></use></g><g><use xlink:href="#bd2vjfrdS" opacity="1" fill="#2f6fb4" fill-opacity="1"></use></g><g><use xlink:href="#a4XMbmb43f" opacity="1" fill="#ffffff" fill-opacity="1"></use></g><g><use xlink:href="#cGZfUXTs6" opacity="1" fill="#4ab206" fill-opacity="1"></use></g><g><use xlink:href="#i169Ie5X7v" opacity="1" fill="#ffffff" fill-opacity="1"></use></g><g><use xlink:href="#g4Cw1RxkE" opacity="1" fill="#e677cc" fill-opacity="1"></use></g><g><use xlink:href="#cw8mX8gzk" opacity="1" fill="#ffffff" fill-opacity="1"></use></g><g><use xlink:href="#a2B8eER2sE" opacity="1" fill="#ba046c" fill-opacity="1"></use></g><g><use xlink:href="#h1LZfwDpv" opacity="1" fill="#ba046c" fill-opacity="1"></use></g></g></g></svg>